<svg id="svg-icon-bom-table-button" width="512" height="512" viewBox="0 0 20 20">
    <path d="M3.5 19A2.502 2.502 0 011 16.5v-13C1 2.122 2.121 1 3.5 1h13C17.879 1 19 2.122 19 3.5v13c0 1.379-1.121 2.5-2.5 2.5h-13z" fill="#333" />
    <path fill-rule="evenodd" clip-rule="evenodd" d="M3.5 2C2.673 2 2 2.673 2 3.5v13c0 .827.673 1.5 1.5 1.5h13c.827 0 1.5-.673 1.5-1.5v-13c0-.827-.673-1.5-1.5-1.5h-13z" fill="#fff" />
    <path d="M5 15h3v1h8v-2H6v-2h2v1h8v-2H6V9h2v1h8V8H6V7h8V5H4v2h1v8z" fill="#333" />
</svg>