<svg id="svg-icon-partstudio" width="512" height="512" viewBox="0 0 20 20">
    <path d="M2 5h6l2 2V1h6l3 3v15h-6l-2-2v2H5l-3-3V5z" fill="#333" />
    <path fill-rule="evenodd" clip-rule="evenodd" d="M15.5 2H11v13.5l2.5 2.5H18V4.5L15.5 2zm-8 4H3v9.5L5.5 18H10V8.5L7.5 6z" fill="#fff" />
    <path fill-rule="evenodd" clip-rule="evenodd" d="M10.677 1.323l-.354.354 2.927 2.927V18.5h.5V4.75h4.75v-.5h-4.896l-2.927-2.927zm-8 4L5.604 8.25H10.5v.5H5.75v9.75h-.5V8.604L2.323 5.677l.354-.354z" fill="#333" />
</svg>